<svg id="Layer_1" data-name="Layer 1" xmlns="http://www.w3.org/2000/svg" viewBox="0 0 612 190"><defs><style>.cls-1{fill:#fff;}</style></defs><title>Artboard 1</title><path class="cls-1" d="M42.34,164H12V28.38q29-1,36.5-1,29.88,0,47.36,17.36t17.5,46.06q0,73.17-71,73.16ZM36.29,49.47v92.48c3.92.38,8.13.57,12.69.57q18.36,0,28.75-13.21t10.39-37q0-43.49-40.73-43.47-3.92,0-11.09.66ZM145.56,26.23a13.12,13.12,0,0,1,9.59,4,13.36,13.36,0,0,1,0,19,13.62,13.62,0,0,1-19.19,0,13.36,13.36,0,0,1,0-19,13.17,13.17,0,0,1,9.59-4ZM133.51,164V83.71H120.7v-19h36.53V164ZM210,164H179.65V28.38q29-1,36.5-1,29.88,0,47.36,17.36T281,90.79Q281,164,210,164ZM203.93,49.47v92.48c3.92.38,8.13.57,12.69.57q18.36,0,28.75-13.21t10.39-37q0-43.49-40.73-43.47-3.92,0-11.09.66ZM350.69,154.06q-3.15,5.17-11.06,8.5a42.56,42.56,0,0,1-16.48,3.29c-10.74,0-19.22-2.69-25.37-8s-9.24-12.93-9.24-22.76q0-17.26,13-27t37-9.74a42.72,42.72,0,0,1,9.69,1.33q0-17.45-22.28-17.45c-8.77,0-16.13,1.45-22,4.36l-5-18q12-5.69,28.69-5.69,22.85,0,33.53,10.34t10.65,39.14v21.21q0,19.82,8,24.91c-1.94,3.38-4.08,5.44-6.44,6.23a25.58,25.58,0,0,1-8.13,1.17,13,13,0,0,1-9.08-3.73,18.77,18.77,0,0,1-5.42-8.06Zm-2.29-37a52.53,52.53,0,0,0-9-1.14q-27.59,0-27.57,18.08,0,13.42,15.55,13.4,21,0,21-21ZM466.31,164l-30.82-49.54L403.77,164H378.53L423,94.34l-41.21-66.2,24.86.09,29.16,46,29.35-45.91H490.6L448.43,94.18,492.7,164ZM493,114.13q0-22.71,13.2-37t34.87-14.29q22.76,0,35.35,13.72T589,114.13q0,23.71-12.81,37.72t-35.13,14q-22.8,0-35.41-14.13T493,114.13Zm24.29,0q0,32.77,23.78,32.75a20.5,20.5,0,0,0,17.27-8.5q6.37-8.54,6.38-24.25,0-32.3-23.65-32.31a20.58,20.58,0,0,0-17.34,8.5q-6.46,8.53-6.44,23.81"/></svg>