<?xml version="1.0" encoding="utf-8"?>
<!-- Generator: Adobe Illustrator 19.1.0, SVG Export Plug-In . SVG Version: 6.00 Build 0)  -->
<svg version="1.1" id="Layer_1" xmlns="http://www.w3.org/2000/svg" xmlns:xlink="http://www.w3.org/1999/xlink" x="0px" y="0px"
	 viewBox="0 302 612 190" style="enable-background:new 0 302 612 190;" xml:space="preserve">
<style type="text/css">
	.st0{fill:#231A8A;}
</style>
<g>
	<path class="st0" d="M42.3,466H12V330.4c19.3-0.7,31.5-1,36.5-1c19.9,0,35.7,5.8,47.4,17.4c11.7,11.6,17.5,26.9,17.5,46.1
		C113.4,441.6,89.7,466,42.3,466L42.3,466z M36.3,351.5V444c3.9,0.4,8.1,0.6,12.7,0.6c12.2,0,21.8-4.4,28.7-13.2
		c6.9-8.8,10.4-21.2,10.4-37c0-29-13.6-43.5-40.7-43.5C44.8,350.8,41.1,351,36.3,351.5L36.3,351.5z M145.6,328.2
		c3.8,0,6.9,1.3,9.6,4c2.6,2.6,4,5.8,4,9.5c0,3.7-1.3,6.9-4,9.5c-2.6,2.6-5.8,4-9.6,4c-3.7,0-6.9-1.3-9.6-4c-2.6-2.6-4-5.8-4-9.5
		c0-3.7,1.3-6.9,4-9.5C138.6,329.6,141.8,328.2,145.6,328.2L145.6,328.2z M133.5,466v-80.3h-12.8v-19h36.5V466H133.5z M210,466
		h-30.3V330.4c19.3-0.7,31.5-1,36.5-1c19.9,0,35.7,5.8,47.4,17.4c11.6,11.5,17.4,26.9,17.4,46C281,441.6,257.3,466,210,466L210,466z
		 M203.9,351.5V444c3.9,0.4,8.1,0.6,12.7,0.6c12.2,0,21.8-4.4,28.7-13.2c6.9-8.8,10.4-21.2,10.4-37c0-29-13.6-43.5-40.7-43.5
		C212.4,350.8,208.7,351,203.9,351.5L203.9,351.5z M350.7,456.1c-2.1,3.4-5.8,6.3-11.1,8.5c-5.3,2.2-10.7,3.3-16.5,3.3
		c-10.7,0-19.2-2.7-25.4-8c-6.2-5.3-9.2-12.9-9.2-22.8c0-11.5,4.3-20.5,13-27s21-9.7,37-9.7c2.7,0,6,0.4,9.7,1.3
		c0-11.6-7.4-17.5-22.3-17.5c-8.8,0-16.1,1.5-22,4.4l-5-18c8-3.8,17.6-5.7,28.7-5.7c15.2,0,26.4,3.4,33.5,10.3s10.6,19.9,10.6,39.1
		v21.2c0,13.2,2.7,21.5,8,24.9c-1.9,3.4-4.1,5.4-6.4,6.2c-2.4,0.8-5.1,1.2-8.1,1.2c-3.4,0-6.4-1.2-9.1-3.7
		C353.4,461.7,351.6,459,350.7,456.1L350.7,456.1z M348.4,419.1c-4-0.8-6.9-1.1-9-1.1c-18.4,0-27.6,6-27.6,18.1
		c0,8.9,5.2,13.4,15.6,13.4c14,0,21-7,21-21V419.1z M466.3,466l-30.8-49.5L403.8,466h-25.2l44.4-69.7l-41.2-66.2l24.9,0.1l29.2,46
		l29.4-45.9h25.4l-42.2,65.9l44.3,69.8H466.3z M493,416.1c0-15.1,4.4-27.5,13.2-37c8.8-9.5,20.4-14.3,34.9-14.3
		c15.2,0,26.9,4.6,35.3,13.7c8.4,9.1,12.6,21.7,12.6,37.6c0,15.8-4.3,28.4-12.8,37.7c-8.6,9.3-20.3,14-35.1,14
		c-15.2,0-27-4.7-35.4-14.1C497.2,444.3,493,431.7,493,416.1L493,416.1z M517.3,416.1c0,21.8,7.9,32.8,23.8,32.8
		c7.3,0,13-2.8,17.3-8.5c4.2-5.7,6.4-13.8,6.4-24.2c0-21.5-7.9-32.3-23.7-32.3c-7.3,0-13.1,2.8-17.3,8.5
		C519.4,398,517.3,405.9,517.3,416.1"/>
</g>
</svg>
